<?xml version="1.0" standalone="no"?>
<!DOCTYPE svg PUBLIC "-//W3C//DTD SVG 20010904//EN"
 "http://www.w3.org/TR/2001/REC-SVG-20010904/DTD/svg10.dtd">
<svg version="1.0" xmlns="http://www.w3.org/2000/svg"
 width="250.000000pt" height="28.000000pt" viewBox="0 0 250.000000 28.000000"
 preserveAspectRatio="xMidYMid meet">

<g transform="translate(0.000000,28.000000) scale(0.100000,-0.100000)"
fill="#000000" stroke="none">
<path d="M2070 256 l-55 -12 0 -110 0 -109 80 -8 c44 -5 122 -6 173 -2 l93 7
-3 111 -3 110 -57 13 c-39 9 -66 10 -83 4 -16 -6 -34 -6 -51 0 -14 6 -28 9
-32 9 -4 -1 -32 -7 -62 -13z m108 -102 l3 -89 -66 0 -65 -1 0 82 c0 88 2 93
54 104 62 13 71 3 74 -96z m115 90 c27 -6 27 -7 27 -93 l0 -86 -65 0 -65 0 0
88 c0 82 2 88 23 97 12 5 29 7 37 5 8 -2 27 -7 43 -11z m-108 -204 l145 0 0
94 c0 53 4 98 10 101 6 4 10 -31 10 -98 l0 -105 -92 -7 c-51 -3 -124 -3 -163
2 l-70 8 -3 89 c-2 49 1 97 5 105 5 9 9 -28 11 -87 l3 -102 144 0z m-37 13
c-10 -2 -28 -2 -40 0 -13 2 -5 4 17 4 22 1 32 -1 23 -4z m120 0 c-10 -2 -28
-2 -40 0 -13 2 -5 4 17 4 22 1 32 -1 23 -4z"/>
<path d="M59 197 c-1 -1 -2 -30 -3 -64 l-2 -63 29 0 c26 0 29 3 23 25 -5 18
-2 25 9 25 20 0 19 17 -1 28 -13 7 -9 9 16 8 32 -1 32 -1 26 -43 l-6 -43 56 0
c55 0 56 0 50 26 -5 17 -3 23 4 19 15 -9 12 9 -6 31 -14 18 -15 16 -11 -23 4
-29 1 -43 -6 -43 -8 0 -11 18 -9 55 4 57 13 68 31 38 6 -10 10 -13 11 -8 0 26
-20 32 -112 33 -54 1 -98 1 -99 -1z m81 -21 c0 -9 -8 -12 -25 -8 -18 3 -25 0
-25 -12 0 -9 6 -16 13 -16 8 0 8 -3 -2 -9 -8 -5 -12 -18 -8 -30 4 -15 0 -21
-11 -21 -14 0 -16 9 -14 55 l4 55 34 0 c22 0 34 -5 34 -14z m54 -44 c1 -40 -2
-52 -14 -52 -12 0 -14 11 -12 56 5 69 24 67 26 -4z m26 -2 c0 -16 -4 -30 -10
-30 -5 0 -10 14 -10 30 0 17 5 30 10 30 6 0 10 -13 10 -30z"/>
<path d="M280 187 c0 -9 -2 -21 -5 -29 -3 -7 2 -22 10 -33 15 -19 16 -18 12
23 -4 29 -2 42 6 39 10 -3 11 -96 1 -106 -2 -3 -11 4 -20 15 -14 17 -15 18
-10 1 3 -10 6 -21 6 -23 0 -2 9 -4 20 -4 17 0 20 7 22 45 1 25 2 53 2 63 1 10
-8 18 -21 20 -15 2 -23 -2 -23 -11z"/>
<path d="M365 188 c-21 -61 -35 -104 -35 -110 0 -5 12 -8 26 -8 21 0 25 4 21
20 -3 12 0 20 8 20 8 0 11 -8 8 -20 -4 -16 0 -20 21 -20 14 0 26 5 26 12 0 9
3 9 12 0 15 -15 61 -15 76 0 18 18 15 53 -6 71 -23 21 -52 22 -52 2 0 -9 10
-15 26 -15 22 0 25 -4 22 -27 -3 -30 -32 -43 -52 -23 -8 9 -4 10 17 5 23 -6
27 -4 27 14 0 16 -6 21 -25 21 -20 0 -25 5 -25 24 0 13 7 26 15 30 18 6 45 -2
45 -15 0 -5 5 -9 10 -9 7 0 7 6 0 20 -14 26 -52 26 -76 -1 -22 -24 -10 -52 25
-57 33 -5 25 -20 -11 -18 -30 1 -35 6 -49 46 -15 44 -44 65 -54 38z m43 -43
c5 -16 13 -38 17 -47 5 -13 2 -18 -8 -18 -8 0 -14 8 -13 18 1 11 -6 17 -19 17
-13 0 -20 -6 -19 -17 1 -10 -4 -18 -12 -18 -17 0 -17 0 0 41 7 19 16 43 20 53
8 23 19 13 34 -29z"/>
<path d="M377 155 c-8 -20 -4 -29 11 -24 5 2 6 13 2 23 -6 19 -7 19 -13 1z"/>
<path d="M604 135 l0 -65 74 0 74 0 -6 28 c-6 26 -6 26 9 8 8 -11 15 -23 15
-28 0 -4 9 -8 20 -8 17 0 20 7 22 48 1 40 2 42 5 12 3 -19 9 -41 15 -47 13
-16 50 -17 66 -1 9 9 12 9 12 0 0 -7 11 -12 25 -12 18 0 25 5 25 20 0 11 4 20
9 20 5 0 7 -9 4 -20 -5 -19 0 -20 64 -20 40 0 74 5 81 12 9 9 12 9 12 0 0 -9
36 -12 131 -12 l131 0 -6 28 -6 27 21 -27 c29 -39 49 -36 49 6 0 18 3 48 6 65
6 28 4 31 -20 31 -18 0 -26 -5 -26 -17 -1 -17 -2 -17 -15 0 -7 10 -22 17 -32
15 -15 -3 -17 -12 -15 -51 2 -29 0 -47 -7 -47 -12 0 -14 11 -11 48 3 42 -15
51 -103 51 -44 0 -86 -4 -93 -10 -8 -7 -14 -7 -19 1 -3 5 -24 10 -46 10 l-39
0 3 -45 c3 -55 -13 -56 -33 -1 -22 58 -44 58 -60 1 -12 -42 -30 -70 -30 -46 0
15 -37 14 -43 -1 -3 -7 -6 1 -6 18 -1 28 2 31 24 26 17 -3 25 0 25 10 0 33
-53 51 -77 27 -8 -8 -13 -8 -17 0 -4 6 -16 11 -28 11 -16 0 -19 -5 -16 -25 3
-13 1 -22 -3 -19 -15 9 -10 -11 7 -32 14 -18 15 -16 11 24 -3 23 -1 42 4 42 5
0 9 -25 9 -55 0 -30 -4 -55 -10 -55 -5 0 -19 18 -30 40 -11 22 -23 40 -26 40
-3 0 -4 -18 -2 -40 2 -23 -1 -40 -7 -40 -6 0 -9 22 -8 52 1 39 5 52 15 50 7
-2 16 -9 20 -15 6 -9 8 -9 8 -1 0 22 -26 32 -91 33 l-65 1 0 -65z m81 45 c4
-6 -7 -10 -24 -10 -33 0 -46 -29 -13 -31 16 -1 16 -2 -1 -6 -29 -8 -16 -38 16
-36 15 1 27 -2 27 -8 0 -5 -17 -9 -37 -9 l-38 0 0 55 0 55 32 0 c17 0 35 -4
38 -10z m205 -4 c10 -13 7 -15 -17 -13 -25 2 -28 -2 -31 -31 -4 -35 23 -57 38
-31 5 7 12 10 16 6 13 -12 -12 -29 -37 -25 -21 3 -24 9 -27 47 -4 56 28 82 58
47z m100 -25 c0 -9 7 -28 14 -43 13 -24 13 -28 0 -28 -8 0 -14 9 -14 21 0 15
-5 20 -22 17 -15 -2 -22 -9 -22 -21 1 -9 -4 -17 -11 -17 -9 0 -7 14 8 55 16
44 23 53 33 44 8 -6 14 -19 14 -28z m119 25 c7 -8 11 -32 9 -53 -3 -36 -5 -38
-38 -41 l-35 -3 0 56 c0 53 1 55 26 55 15 0 32 -6 38 -14z m111 4 c0 -5 -11
-10 -25 -10 -29 0 -36 -29 -7 -31 16 -1 16 -2 0 -6 -10 -2 -18 -14 -18 -25 0
-17 4 -19 25 -14 14 4 25 2 25 -4 0 -5 -17 -10 -37 -10 l-38 0 3 55 4 55 34 0
c19 0 34 -4 34 -10z m89 1 c9 -6 11 -18 7 -35 -4 -15 -2 -35 4 -46 9 -16 8
-20 -6 -20 -10 0 -14 3 -11 6 8 9 -11 44 -23 44 -6 0 -10 -11 -10 -25 0 -14
-6 -25 -12 -25 -9 0 -12 16 -10 55 3 49 6 55 25 55 12 0 28 -4 36 -9z m95 -33
l26 -43 -2 37 c-1 21 1 38 5 38 4 0 7 -2 7 -5 0 -3 0 -25 0 -50 0 -45 -14 -60
-24 -27 -4 9 -16 28 -27 42 l-21 25 5 -42 c3 -29 1 -43 -6 -43 -8 0 -11 18 -9
55 2 30 7 55 12 55 4 0 20 -19 34 -42z m-694 -15 c0 -24 -4 -28 -30 -28 -16 0
-30 3 -30 8 0 4 5 7 10 7 17 0 11 28 -7 33 -10 3 -1 5 20 6 34 1 37 -1 37 -26z
m427 -20 c-3 -10 -5 -2 -5 17 0 19 2 27 5 18 2 -10 2 -26 0 -35z m103 20 c0
-24 -4 -28 -30 -28 -16 0 -30 3 -30 8 0 4 7 7 15 7 21 0 19 28 -2 33 -10 3 -3
5 15 6 29 1 32 -2 32 -26z"/>
<path d="M960 151 c0 -12 5 -21 10 -21 6 0 10 6 10 14 0 8 -4 18 -10 21 -5 3
-10 -3 -10 -14z"/>
<path d="M1062 133 c2 -27 8 -39 21 -41 14 -3 17 4 17 37 0 35 -3 41 -21 41
-17 0 -20 -5 -17 -37z m28 -4 c0 -17 -4 -28 -10 -24 -5 3 -10 17 -10 31 0 13
5 24 10 24 6 0 10 -14 10 -31z"/>
<path d="M1270 154 c0 -9 7 -14 17 -12 25 5 28 28 4 28 -12 0 -21 -6 -21 -16z"/>
<path d="M1482 142 c-27 -74 -27 -72 4 -72 21 0 25 4 21 20 -3 12 0 20 8 20 8
0 11 -7 8 -19 -4 -17 1 -19 59 -19 34 0 69 5 76 11 9 7 16 7 24 -1 13 -13 54
-16 61 -4 3 4 -9 7 -26 7 -30 0 -32 3 -35 38 -4 48 13 70 46 62 15 -4 21 -2
17 5 -10 17 -51 11 -70 -10 -12 -14 -25 -17 -46 -13 -28 5 -29 4 -29 -31 0
-25 5 -39 17 -43 9 -4 19 -1 21 5 2 7 8 12 14 12 6 0 5 -6 -2 -15 -7 -9 -23
-15 -34 -13 -17 2 -22 11 -24 50 -3 40 0 47 18 53 12 4 27 1 35 -5 10 -9 15
-9 15 -1 0 17 -48 25 -65 11 -8 -7 -15 -28 -15 -46 0 -47 -15 -43 -32 9 -21
62 -41 59 -66 -11z m52 16 c26 -63 28 -78 13 -78 -8 0 -14 8 -13 18 1 11 -6
17 -19 17 -13 0 -20 -6 -19 -17 1 -10 -4 -18 -12 -18 -13 0 -11 10 21 98 7 20
15 14 29 -20z m122 -8 c8 0 14 -7 14 -15 0 -8 -9 -15 -20 -15 -11 0 -20 -5
-20 -11 0 -5 -4 -7 -10 -4 -5 3 -10 18 -10 32 0 19 4 24 16 19 9 -3 22 -6 30
-6z"/>
<path d="M1507 151 c-3 -14 0 -21 9 -21 16 0 18 9 5 28 -6 10 -10 9 -14 -7z"/>
<path d="M1762 188 c-13 -13 -16 -75 -6 -102 8 -20 104 -23 104 -4 0 9 3 9 12
0 16 -16 63 -15 77 1 12 15 10 84 -2 105 -5 6 -18 12 -31 12 -12 0 -28 -6 -35
-12 -11 -10 -14 -10 -18 0 -6 16 -85 16 -101 0z m88 -8 c0 -5 -11 -10 -25 -10
-29 0 -36 -29 -7 -31 16 -1 16 -2 0 -6 -10 -2 -18 -14 -18 -25 0 -16 5 -19 25
-16 14 3 25 1 25 -3 0 -5 -16 -9 -35 -9 l-35 0 0 55 0 55 35 0 c19 0 35 -4 35
-10z m85 0 c4 -6 -5 -10 -19 -10 -16 0 -26 -6 -26 -15 0 -9 9 -15 24 -15 30 0
40 -13 31 -40 -7 -21 -49 -28 -60 -10 -4 7 2 9 19 4 22 -5 26 -3 26 14 0 14
-8 22 -22 24 -26 3 -37 36 -16 49 18 12 35 11 43 -1z m-168 -67 c-3 -10 -5 -2
-5 17 0 19 2 27 5 18 2 -10 2 -26 0 -35z m103 27 c6 -11 20 -20 30 -20 11 0
20 -3 20 -7 0 -5 -25 -8 -55 -8 -30 0 -55 3 -55 8 0 4 7 7 15 7 21 0 19 28 -2
33 -11 3 -8 5 9 6 18 1 31 -6 38 -19z"/>
<path d="M1700 129 c0 -33 3 -40 18 -37 12 2 18 14 20 41 3 32 0 37 -17 37
-18 0 -21 -6 -21 -41z m17 -16 c-3 -10 -5 -2 -5 17 0 19 2 27 5 18 2 -10 2
-26 0 -35z"/>
</g>
</svg>
